Coordinates
version=1
nRows=10
nColumns=63
inDegrees=yes

Units are S.I. units (second, meters, Newtons, ...)
If the header above contains a line with 'inDegrees', this indicates whether rotational values are in degrees (yes) or radians (no).

endheader
time	pelvis_tilt	pelvis_list	pelvis_rotation	pelvis_tx	pelvis_ty	pelvis_tz	hip_flexion_r	hip_adduction_r	hip_rotation_r	knee_angle_r	knee_angle_r_beta	ankle_angle_r	subtalar_angle_r	mtp_angle_r	hip_flexion_l	hip_adduction_l	hip_rotation_l	knee_angle_l	knee_angle_l_beta	ankle_angle_l	subtalar_angle_l	mtp_angle_l	L5_S1_Flex_Ext	L5_S1_Lat_Bending	L5_S1_axial_rotation	L4_L5_Flex_Ext	L4_L5_Lat_Bending	L4_L5_axial_rotation	L3_L4_Flex_Ext	L3_L4_Lat_Bending	L3_L4_axial_rotation	L2_L3_Flex_Ext	L2_L3_Lat_Bending	L2_L3_axial_rotation	L1_L2_Flex_Ext	L1_L2_Lat_Bending	L1_L2_axial_rotation	L1_T12_Flex_Ext	L1_T12_Lat_Bending	L1_T12_axial_rotation	Abs_r3	Abs_r2	Abs_r1	Abs_t1	Abs_t2	neck_flexion	neck_bending	neck_rotation	arm_flex_r	arm_add_r	arm_rot_r	elbow_flex_r	pro_sup_r	wrist_flex_r	wrist_dev_r	arm_flex_l	arm_add_l	arm_rot_l	elbow_flex_l	pro_sup_l	wrist_flex_l	wrist_dev_l
      1.76271186	      1.00833471	     -1.20881549	     97.84463129	      0.24261686	      0.71436392	      0.78634284	     -2.19357537	      1.95727091	     -2.61648923	      1.01986779	      0.01780005	     26.20912300	     -7.28802708	      0.00000000	     -2.43480972	     -3.29385148	     -1.84230958	      4.12660679	      0.07202288	     29.43500367	     11.98789948	      0.00000000	      0.02621316	      0.27016327	     -0.34932425	      0.04868045	      0.35931715	     -0.37115701	      0.04306559	      0.65687497	     -0.37115701	      0.02995902	      0.65687497	     -0.30565872	      0.02434154	      0.55091694	     -0.28382595	      0.01497820	      0.41848290	     -0.26199318	      0.18723795	      3.05614092	     -1.94283666	      0.00000000	      0.00000000	     17.38207489	     -4.34542141	     -5.13191550	      6.90155252	    -11.66336206	     61.81647459	     49.01469537	     86.63191265	    -10.88080762	      2.07842478	      5.59787825	     -6.11657256	     56.92772720	     44.67167724	     45.58965975	     -0.08594102	     15.52186309
      1.77966102	      0.99076277	     -1.43150823	     97.46260843	      0.24325467	      0.71382197	      0.78721812	     -1.86366325	      1.88677552	     -2.05939210	      1.00034785	      0.01745936	     27.04937958	     -6.26689668	      0.00000000	     -2.32085773	     -3.22566986	     -2.40836696	      3.92789906	      0.06855477	     29.46317719	     12.39155509	      0.00000000	      0.03425889	      0.26660383	     -0.30921942	      0.06362218	      0.35458309	     -0.32854563	      0.05628392	      0.64822054	     -0.32854563	      0.03915448	      0.64822054	     -0.27056699	      0.03181280	      0.54365852	     -0.25124078	      0.01957553	      0.41296933	     -0.23191456	      0.24470779	      3.01587581	     -1.71978563	      0.00000000	      0.00000000	     18.10325694	     -4.18857313	     -5.06956747	      6.95637917	    -11.69458806	     62.05230896	     49.10166725	     86.43243633	    -12.13296281	      1.42400706	      5.41881245	     -6.21124696	     56.14812868	     45.02897008	     45.92161299	     -0.06713050	     15.61769179
      1.79661017	      1.02207346	     -1.64482151	     96.95986936	      0.24394680	      0.71325729	      0.78804457	     -1.52971663	      1.87018294	      0.21766249	      0.96832373	      0.01690044	     27.32500161	     -7.34277852	      0.00000000	     -2.23201888	     -3.21233408	     -3.45468644	      3.77618969	      0.06590694	     29.37009174	     13.20855947	      0.00000000	      0.04405548	      0.27279105	     -0.28527227	      0.08181543	      0.36281209	     -0.30310178	      0.07237875	      0.66326415	     -0.30310178	      0.05035101	      0.66326415	     -0.24961323	      0.04090992	      0.55627550	     -0.23178372	      0.02517330	      0.42255333	     -0.21395420	      0.31468390	      3.08586688	     -1.58659877	      0.00000000	      0.00000000	     19.02112623	     -3.81803805	     -4.46937507	      7.15034632	    -11.75895190	     62.54761814	     49.25813493	     85.59266058	    -13.00947481	      1.10548984	      4.90252886	     -6.15176926	     54.32700727	     45.40333000	     48.02246318	      0.30102448	     15.93661313
      1.81355932	      1.00104125	     -1.82203198	     96.51909845	      0.24463357	      0.71283225	      0.78867558	     -1.22700192	      1.79525920	      0.19428597	      0.96665766	      0.01687136	     28.24902259	     -5.45069058	      0.00000000	     -2.25913645	     -3.11380830	     -3.42567613	      3.46248469	      0.06043176	     29.06157455	     12.69602980	      0.00000000	      0.06162981	      0.27419189	     -0.25380524	      0.11445272	      0.36467522	     -0.26966807	      0.10125162	      0.66667017	     -0.26966807	      0.07043671	      0.66667017	     -0.22207958	      0.05722944	      0.55913211	     -0.20621676	      0.03521527	      0.42472324	     -0.19035393	      0.44021559	      3.10171354	     -1.41158859	      0.00000000	      0.00000000	     19.82543761	     -3.26365769	     -3.58254582	      7.13998653	    -11.69471513	     62.57207662	     49.13647475	     84.19716862	    -13.10884946	      0.26372773	      4.54408726	     -6.18629662	     53.40217618	     45.87488832	     48.26607413	      0.06312376	     16.18704379
      1.83050847	      0.98176194	     -1.98380945	     95.92130486	      0.24557506	      0.71254345	      0.78929268	     -0.89826060	      1.75425102	      2.69195064	      0.98846742	      0.01725201	     28.46407652	     -7.06844649	      0.00000000	     -2.30711952	     -3.04520851	     -4.35162096	      3.17350287	      0.05538807	     28.90836462	     13.19418672	      0.00000000	      0.08023106	      0.27779382	     -0.21795924	      0.14899711	      0.36946578	     -0.23158169	      0.13181162	      0.67542788	     -0.23158169	      0.09169608	      0.67542788	     -0.19071434	      0.07450257	      0.56647715	     -0.17709188	      0.04584403	      0.43030262	     -0.16346943	      0.57308247	      3.14245921	     -1.21222391	      0.00000000	      0.00000000	     20.52774842	     -2.71894583	     -2.50751610	      7.24258489	    -11.62681908	     62.85154019	     49.01674053	     81.06960221	    -12.24784113	     -0.02299439	      3.85508893	     -5.96802447	     51.17429373	     46.15529822	     51.33721875	      0.84073190	     16.69025906
      1.84745763	      0.92709321	     -2.12525736	     95.57553044	      0.24621211	      0.71242596	      0.79000974	     -0.59692791	      1.66977709	      2.42601915	      1.01157570	      0.01765533	     29.32715419	     -5.57674751	      0.00000000	     -2.33797784	     -2.93182211	     -4.34645849	      2.84109243	      0.04958642	     28.69820136	     12.87365830	      0.00000000	      0.10088162	      0.27615044	     -0.22997664	      0.18734726	      0.36728008	     -0.24435018	      0.16573842	      0.67143217	     -0.24435018	      0.11529761	      0.67143217	     -0.20122956	      0.09367867	      0.56312597	     -0.18685602	      0.05764376	      0.42775703	     -0.17248248	      0.72058734	      3.12386897	     -1.27906107	      0.00000000	      0.00000000	     21.00808449	     -2.12930332	     -1.28267874	      7.49881609	    -11.54221295	     63.64871287	     48.82140262	     77.57161302	    -11.77166555	     -0.29610356	      3.30416291	     -5.78346857	     49.47177880	     46.41391822	     53.67285276	      1.20285707	     17.02042186
      1.86440678	      0.86878309	     -2.18133042	     95.25637346	      0.24685413	      0.71258766	      0.79102462	     -0.36711722	      1.57789287	      0.85202340	      1.03247517	      0.01802009	     30.37382464	     -2.64969012	      0.00000000	     -2.43782916	     -2.83619671	     -4.20544359	      2.48693756	      0.04340525	     28.47932241	     12.47854780	      0.00000000	      0.10649550	      0.27376347	     -0.19244608	      0.19777279	      0.36410541	     -0.20447396	      0.17496146	      0.66562850	     -0.20447396	      0.12171371	      0.66562850	     -0.16839032	      0.09889172	      0.55825846	     -0.15636244	      0.06085153	      0.42405961	     -0.14433456	      0.76068670	      3.09686710	     -1.07032739	      0.00000000	      0.00000000	     21.15587162	     -1.85974273	     -0.57561932	      7.61543439	    -11.48701235	     63.79913654	     48.62799447	     74.62012931	    -10.79573283	     -0.27766375	      3.36836213	     -5.74138329	     49.65796657	     46.47766267	     53.22519304	      0.65426203	     16.57405515
      1.88135593	      0.69653090	     -2.39707897	     94.72848911	      0.24798013	      0.71257811	      0.79222736	      0.05813991	      1.37948770	      0.80872552	      1.07229646	      0.01871510	     30.98136170	     -1.73883149	      0.00000000	     -2.38700182	     -2.60818242	     -4.29003161	      2.13188410	      0.03720840	     28.17378486	     12.03271222	      0.00000000	      0.12951095	      0.25029243	     -0.16159789	      0.24051479	      0.33288893	     -0.17169775	      0.21277354	      0.60856102	     -0.17169775	      0.14801807	      0.60856102	     -0.14139815	      0.12026387	      0.51039633	     -0.13129828	      0.07400256	      0.38770298	     -0.12119842	      0.92508378	      2.83135804	     -0.89875897	      0.00000000	      0.00000000	     21.19092923	     -1.34063459	      0.23303748	      8.06751708	    -11.27818860	     64.76397240	     48.14640178	     74.37767695	    -11.26532907	     -1.08004797	      2.89445907	     -5.49178047	     47.64374636	     46.50024506	     56.39109411	      1.39236526	     17.04020275
      1.89830508	      0.59799239	     -2.54715298	     94.25464965	      0.24885494	      0.71267944	      0.79371088	      0.41065058	      1.26334886	      0.93137295	      1.07195560	      0.01870915	     31.44426727	     -1.12965597	      0.00000000	     -2.36957475	     -2.46009251	     -4.23480735	      1.78582278	      0.03116849	     27.79448272	     11.40478295	      0.00000000	      0.14061868	      0.23565136	     -0.08212021	      0.26114295	      0.31341631	     -0.08725273	      0.23102243	      0.57296272	     -0.08725273	      0.16071309	      0.57296272	     -0.07185519	      0.13057851	      0.48054025	     -0.06672267	      0.08034951	      0.36502396	     -0.06159016	      1.00442516	      2.66573531	     -0.45672798	      0.00000000	      0.00000000	     21.08526203	     -1.21424321	      0.25533613	      8.34316345	    -11.25519917	     64.99091117	     48.02229280	     73.82281713	    -11.29047762	     -0.99990502	      3.01079535	     -5.33472904	     47.23119533	     46.29171244	     57.66565400	      1.66247258	     16.91811776
      1.91525424	      0.57032633	     -2.62040706	     94.08904896	      0.24920409	      0.71296460	      0.79535123	      0.64410150	      1.21040812	     -0.27353752	      1.03630526	      0.01808694	     31.95762424	      0.92205871	      0.00000000	     -2.32909837	     -2.41758333	     -4.31015394	      1.54178794	      0.02690928	     27.52716302	     11.34973165	      0.00000000	      0.13595709	      0.23037695	     -0.05035792	      0.25248592	      0.30640134	     -0.05350529	      0.22336391	      0.56013851	     -0.05350529	      0.15538536	      0.56013851	     -0.04406318	      0.12624976	      0.46978467	     -0.04091581	      0.07768588	      0.35685389	     -0.03776844	      0.97112793	      2.60607009	     -0.28007566	      0.00000000	      0.00000000	     21.14129187	     -1.05181498	      0.27027471	      8.65112228	    -11.34103162	     65.10713065	     48.07291670	     71.38861073	    -10.59980472	     -0.45490742	      3.43496685	     -5.30300763	     47.82299437	     46.05957400	     56.64433524	      1.08091982	     16.43354385
